<mxfile host="Electron" modified="2024-03-27T23:08:59.617Z" agent="Mozilla/5.0 (Windows NT 10.0; Win64; x64) AppleWebKit/537.36 (KHTML, like Gecko) draw.io/24.1.0 Chrome/120.0.6099.109 Electron/28.1.0 Safari/537.36" etag="pDMWmK_WRPm7X_YN9Mf5" version="24.1.0" type="device" pages="2">
  <diagram name="Page-1" id="EMOl8qZR2YD2s_F4tZNh">
    <mxGraphModel dx="2270" dy="822" grid="1" gridSize="10" guides="1" tooltips="1" connect="1" arrows="1" fold="1" page="1" pageScale="1" pageWidth="850" pageHeight="1100" math="0" shadow="0">
      <root>
        <mxCell id="0" />
        <mxCell id="1" parent="0" />
        <mxCell id="t-m5-rh9F0vE4IcXD3DX-1" value="" style="group" parent="1" vertex="1" connectable="0">
          <mxGeometry x="80" y="130" width="730" height="320" as="geometry" />
        </mxCell>
        <mxCell id="t-m5-rh9F0vE4IcXD3DX-2" value="" style="group" parent="t-m5-rh9F0vE4IcXD3DX-1" vertex="1" connectable="0">
          <mxGeometry y="10" width="590" height="310" as="geometry" />
        </mxCell>
        <mxCell id="t-m5-rh9F0vE4IcXD3DX-3" value="" style="group" parent="t-m5-rh9F0vE4IcXD3DX-2" vertex="1" connectable="0">
          <mxGeometry width="590" height="310" as="geometry" />
        </mxCell>
        <mxCell id="t-m5-rh9F0vE4IcXD3DX-4" value="kastle&amp;nbsp;" style="shape=umlLifeline;perimeter=lifelinePerimeter;whiteSpace=wrap;html=1;container=0;dropTarget=0;collapsible=0;recursiveResize=0;outlineConnect=0;portConstraint=eastwest;newEdgeStyle={&quot;edgeStyle&quot;:&quot;elbowEdgeStyle&quot;,&quot;elbow&quot;:&quot;vertical&quot;,&quot;curved&quot;:0,&quot;rounded&quot;:0};" parent="t-m5-rh9F0vE4IcXD3DX-3" vertex="1">
          <mxGeometry y="10" width="100" height="300" as="geometry" />
        </mxCell>
        <mxCell id="t-m5-rh9F0vE4IcXD3DX-5" value="" style="html=1;points=[];perimeter=orthogonalPerimeter;outlineConnect=0;targetShapes=umlLifeline;portConstraint=eastwest;newEdgeStyle={&quot;edgeStyle&quot;:&quot;elbowEdgeStyle&quot;,&quot;elbow&quot;:&quot;vertical&quot;,&quot;curved&quot;:0,&quot;rounded&quot;:0};" parent="t-m5-rh9F0vE4IcXD3DX-4" vertex="1">
          <mxGeometry x="45" y="70" width="10" height="190" as="geometry" />
        </mxCell>
        <mxCell id="t-m5-rh9F0vE4IcXD3DX-6" value="" style="html=1;verticalAlign=bottom;startArrow=oval;endArrow=block;startSize=8;edgeStyle=elbowEdgeStyle;elbow=vertical;curved=0;rounded=0;" parent="t-m5-rh9F0vE4IcXD3DX-4" target="t-m5-rh9F0vE4IcXD3DX-5" edge="1">
          <mxGeometry relative="1" as="geometry">
            <mxPoint x="-15" y="70" as="sourcePoint" />
          </mxGeometry>
        </mxCell>
        <mxCell id="t-m5-rh9F0vE4IcXD3DX-7" value="" style="html=1;points=[];perimeter=orthogonalPerimeter;outlineConnect=0;targetShapes=umlLifeline;portConstraint=eastwest;newEdgeStyle={&quot;edgeStyle&quot;:&quot;elbowEdgeStyle&quot;,&quot;elbow&quot;:&quot;vertical&quot;,&quot;curved&quot;:0,&quot;rounded&quot;:0};" parent="t-m5-rh9F0vE4IcXD3DX-4" vertex="1">
          <mxGeometry x="50" y="120" width="10" height="80" as="geometry" />
        </mxCell>
        <mxCell id="t-m5-rh9F0vE4IcXD3DX-8" value="internal GW" style="shape=umlLifeline;perimeter=lifelinePerimeter;whiteSpace=wrap;html=1;container=0;dropTarget=0;collapsible=0;recursiveResize=0;outlineConnect=0;portConstraint=eastwest;newEdgeStyle={&quot;edgeStyle&quot;:&quot;elbowEdgeStyle&quot;,&quot;elbow&quot;:&quot;vertical&quot;,&quot;curved&quot;:0,&quot;rounded&quot;:0};" parent="t-m5-rh9F0vE4IcXD3DX-3" vertex="1">
          <mxGeometry x="180" y="10" width="100" height="300" as="geometry" />
        </mxCell>
        <mxCell id="t-m5-rh9F0vE4IcXD3DX-9" value="" style="html=1;points=[];perimeter=orthogonalPerimeter;outlineConnect=0;targetShapes=umlLifeline;portConstraint=eastwest;newEdgeStyle={&quot;edgeStyle&quot;:&quot;elbowEdgeStyle&quot;,&quot;elbow&quot;:&quot;vertical&quot;,&quot;curved&quot;:0,&quot;rounded&quot;:0};" parent="t-m5-rh9F0vE4IcXD3DX-8" vertex="1">
          <mxGeometry x="45" y="80" width="10" height="170" as="geometry" />
        </mxCell>
        <mxCell id="t-m5-rh9F0vE4IcXD3DX-10" value="confirm aproved offer&amp;nbsp;" style="html=1;verticalAlign=bottom;endArrow=block;edgeStyle=elbowEdgeStyle;elbow=vertical;curved=0;rounded=0;" parent="t-m5-rh9F0vE4IcXD3DX-3" source="t-m5-rh9F0vE4IcXD3DX-5" target="t-m5-rh9F0vE4IcXD3DX-9" edge="1">
          <mxGeometry relative="1" as="geometry">
            <mxPoint x="155" y="100" as="sourcePoint" />
            <Array as="points">
              <mxPoint x="140" y="90" />
            </Array>
          </mxGeometry>
        </mxCell>
        <mxCell id="t-m5-rh9F0vE4IcXD3DX-11" value="return" style="html=1;verticalAlign=bottom;endArrow=open;dashed=1;endSize=8;edgeStyle=elbowEdgeStyle;elbow=vertical;curved=0;rounded=0;" parent="t-m5-rh9F0vE4IcXD3DX-3" source="t-m5-rh9F0vE4IcXD3DX-9" target="t-m5-rh9F0vE4IcXD3DX-5" edge="1">
          <mxGeometry relative="1" as="geometry">
            <mxPoint x="155" y="175" as="targetPoint" />
            <Array as="points">
              <mxPoint x="150" y="250" />
            </Array>
          </mxGeometry>
        </mxCell>
        <mxCell id="t-m5-rh9F0vE4IcXD3DX-12" value="NE&amp;nbsp;" style="shape=umlLifeline;perimeter=lifelinePerimeter;whiteSpace=wrap;html=1;container=0;dropTarget=0;collapsible=0;recursiveResize=0;outlineConnect=0;portConstraint=eastwest;newEdgeStyle={&quot;edgeStyle&quot;:&quot;elbowEdgeStyle&quot;,&quot;elbow&quot;:&quot;vertical&quot;,&quot;curved&quot;:0,&quot;rounded&quot;:0};" parent="t-m5-rh9F0vE4IcXD3DX-3" vertex="1">
          <mxGeometry x="330" y="10" width="100" height="300" as="geometry" />
        </mxCell>
        <mxCell id="t-m5-rh9F0vE4IcXD3DX-13" value="" style="html=1;points=[];perimeter=orthogonalPerimeter;outlineConnect=0;targetShapes=umlLifeline;portConstraint=eastwest;newEdgeStyle={&quot;edgeStyle&quot;:&quot;elbowEdgeStyle&quot;,&quot;elbow&quot;:&quot;vertical&quot;,&quot;curved&quot;:0,&quot;rounded&quot;:0};" parent="t-m5-rh9F0vE4IcXD3DX-12" vertex="1">
          <mxGeometry x="45" y="60" width="10" height="190" as="geometry" />
        </mxCell>
        <mxCell id="t-m5-rh9F0vE4IcXD3DX-14" value="ivr&amp;nbsp;" style="shape=umlLifeline;perimeter=lifelinePerimeter;whiteSpace=wrap;html=1;container=0;dropTarget=0;collapsible=0;recursiveResize=0;outlineConnect=0;portConstraint=eastwest;newEdgeStyle={&quot;edgeStyle&quot;:&quot;elbowEdgeStyle&quot;,&quot;elbow&quot;:&quot;vertical&quot;,&quot;curved&quot;:0,&quot;rounded&quot;:0};" parent="t-m5-rh9F0vE4IcXD3DX-3" vertex="1">
          <mxGeometry x="490" width="100" height="300" as="geometry" />
        </mxCell>
        <mxCell id="t-m5-rh9F0vE4IcXD3DX-15" value="" style="html=1;points=[];perimeter=orthogonalPerimeter;outlineConnect=0;targetShapes=umlLifeline;portConstraint=eastwest;newEdgeStyle={&quot;edgeStyle&quot;:&quot;elbowEdgeStyle&quot;,&quot;elbow&quot;:&quot;vertical&quot;,&quot;curved&quot;:0,&quot;rounded&quot;:0};" parent="t-m5-rh9F0vE4IcXD3DX-14" vertex="1">
          <mxGeometry x="45" y="80" width="10" height="170" as="geometry" />
        </mxCell>
        <mxCell id="t-m5-rh9F0vE4IcXD3DX-16" style="edgeStyle=elbowEdgeStyle;rounded=0;orthogonalLoop=1;jettySize=auto;html=1;elbow=vertical;curved=0;" parent="t-m5-rh9F0vE4IcXD3DX-3" source="t-m5-rh9F0vE4IcXD3DX-13" target="t-m5-rh9F0vE4IcXD3DX-15" edge="1">
          <mxGeometry relative="1" as="geometry" />
        </mxCell>
        <mxCell id="t-m5-rh9F0vE4IcXD3DX-17" value="/callMe" style="html=1;verticalAlign=bottom;endArrow=block;edgeStyle=elbowEdgeStyle;elbow=vertical;curved=0;rounded=0;" parent="t-m5-rh9F0vE4IcXD3DX-3" source="t-m5-rh9F0vE4IcXD3DX-7" target="t-m5-rh9F0vE4IcXD3DX-9" edge="1">
          <mxGeometry relative="1" as="geometry">
            <mxPoint x="220" y="130" as="sourcePoint" />
            <Array as="points">
              <mxPoint x="150" y="130" />
            </Array>
            <mxPoint x="250" y="150" as="targetPoint" />
          </mxGeometry>
        </mxCell>
        <mxCell id="t-m5-rh9F0vE4IcXD3DX-18" value="/ivrCall (nid , forceCallFlag)&amp;nbsp;" style="text;html=1;align=center;verticalAlign=middle;resizable=0;points=[];autosize=1;strokeColor=#d6b656;fillColor=#fff2cc;" parent="t-m5-rh9F0vE4IcXD3DX-3" vertex="1">
          <mxGeometry x="370" y="130" width="170" height="30" as="geometry" />
        </mxCell>
        <mxCell id="t-m5-rh9F0vE4IcXD3DX-19" value="NE" style="shape=umlLifeline;perimeter=lifelinePerimeter;whiteSpace=wrap;html=1;container=0;dropTarget=0;collapsible=0;recursiveResize=0;outlineConnect=0;portConstraint=eastwest;newEdgeStyle={&quot;edgeStyle&quot;:&quot;elbowEdgeStyle&quot;,&quot;elbow&quot;:&quot;vertical&quot;,&quot;curved&quot;:0,&quot;rounded&quot;:0};" parent="t-m5-rh9F0vE4IcXD3DX-1" vertex="1">
          <mxGeometry x="630" width="100" height="300" as="geometry" />
        </mxCell>
        <mxCell id="t-m5-rh9F0vE4IcXD3DX-20" value="" style="html=1;points=[];perimeter=orthogonalPerimeter;outlineConnect=0;targetShapes=umlLifeline;portConstraint=eastwest;newEdgeStyle={&quot;edgeStyle&quot;:&quot;elbowEdgeStyle&quot;,&quot;elbow&quot;:&quot;vertical&quot;,&quot;curved&quot;:0,&quot;rounded&quot;:0};" parent="t-m5-rh9F0vE4IcXD3DX-19" vertex="1">
          <mxGeometry x="45" y="80" width="10" height="170" as="geometry" />
        </mxCell>
        <mxCell id="t-m5-rh9F0vE4IcXD3DX-21" style="edgeStyle=elbowEdgeStyle;rounded=0;orthogonalLoop=1;jettySize=auto;html=1;elbow=vertical;curved=0;" parent="t-m5-rh9F0vE4IcXD3DX-1" source="t-m5-rh9F0vE4IcXD3DX-15" target="t-m5-rh9F0vE4IcXD3DX-19" edge="1">
          <mxGeometry relative="1" as="geometry" />
        </mxCell>
        <mxCell id="t-m5-rh9F0vE4IcXD3DX-22" value="Move to ivr stage&amp;nbsp;" style="text;html=1;align=center;verticalAlign=middle;resizable=0;points=[];autosize=1;strokeColor=none;fillColor=none;" parent="1" vertex="1">
          <mxGeometry x="-15" y="190" width="120" height="30" as="geometry" />
        </mxCell>
        <mxCell id="t-m5-rh9F0vE4IcXD3DX-23" value="confirm approved offer&amp;nbsp;" style="html=1;verticalAlign=bottom;endArrow=block;edgeStyle=elbowEdgeStyle;elbow=vertical;curved=0;rounded=0;" parent="1" edge="1">
          <mxGeometry relative="1" as="geometry">
            <mxPoint x="310" y="230" as="sourcePoint" />
            <Array as="points">
              <mxPoint x="370" y="230" />
            </Array>
            <mxPoint x="450" y="230" as="targetPoint" />
          </mxGeometry>
        </mxCell>
        <mxCell id="t-m5-rh9F0vE4IcXD3DX-24" value="" style="endArrow=classic;html=1;rounded=0;" parent="1" edge="1">
          <mxGeometry width="50" height="50" relative="1" as="geometry">
            <mxPoint x="747.25" y="348" as="sourcePoint" />
            <mxPoint x="612.75" y="348" as="targetPoint" />
          </mxGeometry>
        </mxCell>
        <mxCell id="t-m5-rh9F0vE4IcXD3DX-25" value="ivr call back" style="text;html=1;align=center;verticalAlign=middle;resizable=0;points=[];autosize=1;strokeColor=none;fillColor=none;" parent="1" vertex="1">
          <mxGeometry x="635" y="318" width="90" height="30" as="geometry" />
        </mxCell>
        <mxCell id="t-m5-rh9F0vE4IcXD3DX-26" value="call me&amp;nbsp;" style="text;html=1;align=center;verticalAlign=middle;resizable=0;points=[];autosize=1;strokeColor=none;fillColor=none;" parent="1" vertex="1">
          <mxGeometry x="30" y="260" width="60" height="30" as="geometry" />
        </mxCell>
        <mxCell id="t-m5-rh9F0vE4IcXD3DX-27" value="if z amount of time passed&amp;nbsp;" style="text;html=1;strokeColor=none;fillColor=none;align=center;verticalAlign=middle;whiteSpace=wrap;rounded=0;" parent="1" vertex="1">
          <mxGeometry x="30" y="540" width="150" height="30" as="geometry" />
        </mxCell>
        <mxCell id="t-m5-rh9F0vE4IcXD3DX-28" value="" style="group" parent="1" vertex="1" connectable="0">
          <mxGeometry x="40" y="630" width="730" height="330" as="geometry" />
        </mxCell>
        <mxCell id="t-m5-rh9F0vE4IcXD3DX-29" value="" style="group" parent="t-m5-rh9F0vE4IcXD3DX-28" vertex="1" connectable="0">
          <mxGeometry y="10" width="590" height="320" as="geometry" />
        </mxCell>
        <mxCell id="t-m5-rh9F0vE4IcXD3DX-30" value="" style="group" parent="t-m5-rh9F0vE4IcXD3DX-29" vertex="1" connectable="0">
          <mxGeometry width="590" height="320" as="geometry" />
        </mxCell>
        <mxCell id="t-m5-rh9F0vE4IcXD3DX-31" value="core system" style="shape=umlLifeline;perimeter=lifelinePerimeter;whiteSpace=wrap;html=1;container=0;dropTarget=0;collapsible=0;recursiveResize=0;outlineConnect=0;portConstraint=eastwest;newEdgeStyle={&quot;edgeStyle&quot;:&quot;elbowEdgeStyle&quot;,&quot;elbow&quot;:&quot;vertical&quot;,&quot;curved&quot;:0,&quot;rounded&quot;:0};" parent="t-m5-rh9F0vE4IcXD3DX-30" vertex="1">
          <mxGeometry y="10" width="100" height="300" as="geometry" />
        </mxCell>
        <mxCell id="t-m5-rh9F0vE4IcXD3DX-32" value="" style="html=1;points=[];perimeter=orthogonalPerimeter;outlineConnect=0;targetShapes=umlLifeline;portConstraint=eastwest;newEdgeStyle={&quot;edgeStyle&quot;:&quot;elbowEdgeStyle&quot;,&quot;elbow&quot;:&quot;vertical&quot;,&quot;curved&quot;:0,&quot;rounded&quot;:0};" parent="t-m5-rh9F0vE4IcXD3DX-31" vertex="1">
          <mxGeometry x="45" y="70" width="10" height="190" as="geometry" />
        </mxCell>
        <mxCell id="t-m5-rh9F0vE4IcXD3DX-33" value="" style="html=1;verticalAlign=bottom;startArrow=oval;endArrow=block;startSize=8;edgeStyle=elbowEdgeStyle;elbow=vertical;curved=0;rounded=0;" parent="t-m5-rh9F0vE4IcXD3DX-31" target="t-m5-rh9F0vE4IcXD3DX-32" edge="1">
          <mxGeometry relative="1" as="geometry">
            <mxPoint x="-15" y="70" as="sourcePoint" />
          </mxGeometry>
        </mxCell>
        <mxCell id="t-m5-rh9F0vE4IcXD3DX-34" value="Text" style="edgeLabel;html=1;align=center;verticalAlign=middle;resizable=0;points=[];" parent="t-m5-rh9F0vE4IcXD3DX-33" vertex="1" connectable="0">
          <mxGeometry x="-0.0333" y="-3" relative="1" as="geometry">
            <mxPoint as="offset" />
          </mxGeometry>
        </mxCell>
        <mxCell id="t-m5-rh9F0vE4IcXD3DX-35" value="ivr" style="shape=umlLifeline;perimeter=lifelinePerimeter;whiteSpace=wrap;html=1;container=0;dropTarget=0;collapsible=0;recursiveResize=0;outlineConnect=0;portConstraint=eastwest;newEdgeStyle={&quot;edgeStyle&quot;:&quot;elbowEdgeStyle&quot;,&quot;elbow&quot;:&quot;vertical&quot;,&quot;curved&quot;:0,&quot;rounded&quot;:0};" parent="t-m5-rh9F0vE4IcXD3DX-30" vertex="1">
          <mxGeometry x="180" y="10" width="100" height="300" as="geometry" />
        </mxCell>
        <mxCell id="t-m5-rh9F0vE4IcXD3DX-36" value="" style="html=1;points=[];perimeter=orthogonalPerimeter;outlineConnect=0;targetShapes=umlLifeline;portConstraint=eastwest;newEdgeStyle={&quot;edgeStyle&quot;:&quot;elbowEdgeStyle&quot;,&quot;elbow&quot;:&quot;vertical&quot;,&quot;curved&quot;:0,&quot;rounded&quot;:0};" parent="t-m5-rh9F0vE4IcXD3DX-35" vertex="1">
          <mxGeometry x="45" y="80" width="10" height="170" as="geometry" />
        </mxCell>
        <mxCell id="t-m5-rh9F0vE4IcXD3DX-37" value="/call ivr&amp;nbsp;" style="html=1;verticalAlign=bottom;endArrow=block;edgeStyle=elbowEdgeStyle;elbow=horizontal;curved=0;rounded=0;" parent="t-m5-rh9F0vE4IcXD3DX-30" target="t-m5-rh9F0vE4IcXD3DX-36" edge="1">
          <mxGeometry relative="1" as="geometry">
            <mxPoint x="60" y="130" as="sourcePoint" />
            <Array as="points">
              <mxPoint x="150" y="130" />
            </Array>
            <mxPoint x="250" y="150" as="targetPoint" />
          </mxGeometry>
        </mxCell>
        <mxCell id="t-m5-rh9F0vE4IcXD3DX-38" value="NE" style="shape=umlLifeline;perimeter=lifelinePerimeter;whiteSpace=wrap;html=1;container=0;dropTarget=0;collapsible=0;recursiveResize=0;outlineConnect=0;portConstraint=eastwest;newEdgeStyle={&quot;edgeStyle&quot;:&quot;elbowEdgeStyle&quot;,&quot;elbow&quot;:&quot;vertical&quot;,&quot;curved&quot;:0,&quot;rounded&quot;:0};" parent="t-m5-rh9F0vE4IcXD3DX-30" vertex="1">
          <mxGeometry x="360" width="100" height="300" as="geometry" />
        </mxCell>
        <mxCell id="t-m5-rh9F0vE4IcXD3DX-39" value="" style="html=1;points=[];perimeter=orthogonalPerimeter;outlineConnect=0;targetShapes=umlLifeline;portConstraint=eastwest;newEdgeStyle={&quot;edgeStyle&quot;:&quot;elbowEdgeStyle&quot;,&quot;elbow&quot;:&quot;vertical&quot;,&quot;curved&quot;:0,&quot;rounded&quot;:0};" parent="t-m5-rh9F0vE4IcXD3DX-38" vertex="1">
          <mxGeometry x="45" y="80" width="10" height="170" as="geometry" />
        </mxCell>
        <mxCell id="t-m5-rh9F0vE4IcXD3DX-40" value="unifonic" style="shape=umlLifeline;perimeter=lifelinePerimeter;whiteSpace=wrap;html=1;container=0;dropTarget=0;collapsible=0;recursiveResize=0;outlineConnect=0;portConstraint=eastwest;newEdgeStyle={&quot;edgeStyle&quot;:&quot;elbowEdgeStyle&quot;,&quot;elbow&quot;:&quot;vertical&quot;,&quot;curved&quot;:0,&quot;rounded&quot;:0};" parent="t-m5-rh9F0vE4IcXD3DX-30" vertex="1">
          <mxGeometry x="490" width="100" height="300" as="geometry" />
        </mxCell>
        <mxCell id="t-m5-rh9F0vE4IcXD3DX-41" value="" style="html=1;points=[];perimeter=orthogonalPerimeter;outlineConnect=0;targetShapes=umlLifeline;portConstraint=eastwest;newEdgeStyle={&quot;edgeStyle&quot;:&quot;elbowEdgeStyle&quot;,&quot;elbow&quot;:&quot;vertical&quot;,&quot;curved&quot;:0,&quot;rounded&quot;:0};" parent="t-m5-rh9F0vE4IcXD3DX-40" vertex="1">
          <mxGeometry x="45" y="80" width="10" height="170" as="geometry" />
        </mxCell>
        <mxCell id="t-m5-rh9F0vE4IcXD3DX-42" value="schedular to call ivr&amp;nbsp;" style="text;html=1;strokeColor=none;fillColor=none;align=center;verticalAlign=middle;whiteSpace=wrap;rounded=0;" parent="t-m5-rh9F0vE4IcXD3DX-30" vertex="1">
          <mxGeometry x="50" y="70" width="120" height="30" as="geometry" />
        </mxCell>
        <mxCell id="t-m5-rh9F0vE4IcXD3DX-43" value="call ivr (forceFlage = true )" style="text;html=1;align=center;verticalAlign=middle;resizable=0;points=[];autosize=1;strokeColor=none;fillColor=none;" parent="t-m5-rh9F0vE4IcXD3DX-30" vertex="1">
          <mxGeometry x="60" y="208" width="160" height="30" as="geometry" />
        </mxCell>
        <mxCell id="t-m5-rh9F0vE4IcXD3DX-44" value="check if status is pending&amp;nbsp;" style="text;html=1;strokeColor=none;fillColor=none;align=center;verticalAlign=middle;whiteSpace=wrap;rounded=0;" parent="t-m5-rh9F0vE4IcXD3DX-30" vertex="1">
          <mxGeometry x="210" y="90" width="120" height="30" as="geometry" />
        </mxCell>
        <mxCell id="t-m5-rh9F0vE4IcXD3DX-45" value="" style="endArrow=classic;html=1;rounded=0;" parent="t-m5-rh9F0vE4IcXD3DX-30" target="t-m5-rh9F0vE4IcXD3DX-41" edge="1">
          <mxGeometry width="50" height="50" relative="1" as="geometry">
            <mxPoint x="420" y="190" as="sourcePoint" />
            <mxPoint x="580" y="190" as="targetPoint" />
          </mxGeometry>
        </mxCell>
        <mxCell id="t-m5-rh9F0vE4IcXD3DX-46" value="force call ivr by operation&amp;nbsp;" style="text;html=1;align=center;verticalAlign=middle;resizable=0;points=[];autosize=1;strokeColor=none;fillColor=none;" parent="1" vertex="1">
          <mxGeometry x="-90" y="860" width="160" height="30" as="geometry" />
        </mxCell>
        <mxCell id="t-m5-rh9F0vE4IcXD3DX-47" value="" style="endArrow=classic;html=1;rounded=0;" parent="1" target="t-m5-rh9F0vE4IcXD3DX-36" edge="1">
          <mxGeometry width="50" height="50" relative="1" as="geometry">
            <mxPoint x="100" y="880" as="sourcePoint" />
            <mxPoint x="440" y="590" as="targetPoint" />
          </mxGeometry>
        </mxCell>
        <mxCell id="t-m5-rh9F0vE4IcXD3DX-48" value="" style="endArrow=classic;html=1;rounded=0;" parent="1" edge="1">
          <mxGeometry width="50" height="50" relative="1" as="geometry">
            <mxPoint x="280" y="800" as="sourcePoint" />
            <mxPoint x="440" y="800" as="targetPoint" />
          </mxGeometry>
        </mxCell>
        <mxCell id="t-m5-rh9F0vE4IcXD3DX-49" value="notify event()" style="text;html=1;align=center;verticalAlign=middle;resizable=0;points=[];autosize=1;strokeColor=none;fillColor=none;" parent="1" vertex="1">
          <mxGeometry x="285" y="768" width="90" height="30" as="geometry" />
        </mxCell>
        <mxCell id="t-m5-rh9F0vE4IcXD3DX-50" value="after confirm aproved offer&amp;nbsp;" style="shape=note;whiteSpace=wrap;html=1;backgroundOutline=1;darkOpacity=0.05;sketch=1;hachureGap=4;jiggle=2;curveFitting=1;fontFamily=Architects Daughter;fontSource=https%3A%2F%2Ffonts.googleapis.com%2Fcss%3Ffamily%3DArchitects%2BDaughter;" parent="1" vertex="1">
          <mxGeometry x="-160" y="20" width="260" height="100" as="geometry" />
        </mxCell>
      </root>
    </mxGraphModel>
  </diagram>
  <diagram id="FSEz3NKn8MGeTbbiw71Y" name="Page-2">
    <mxGraphModel dx="2284" dy="886" grid="1" gridSize="10" guides="1" tooltips="1" connect="1" arrows="1" fold="1" page="1" pageScale="1" pageWidth="850" pageHeight="1100" math="0" shadow="0">
      <root>
        <mxCell id="0" />
        <mxCell id="A4CUX9CkDe_HxodY0HPF-2" value="Untitled Layer" parent="0" />
        <mxCell id="1" parent="0" />
        <mxCell id="nJyOQQGIHR7tUgb3jm-N-22" value="Move to ivr stage&amp;nbsp;" style="text;html=1;align=center;verticalAlign=middle;resizable=0;points=[];autosize=1;strokeColor=none;fillColor=none;" parent="1" vertex="1">
          <mxGeometry x="-15" y="190" width="120" height="30" as="geometry" />
        </mxCell>
        <mxCell id="nJyOQQGIHR7tUgb3jm-N-26" value="call me&amp;nbsp;" style="text;html=1;align=center;verticalAlign=middle;resizable=0;points=[];autosize=1;strokeColor=none;fillColor=none;" parent="1" vertex="1">
          <mxGeometry x="30" y="260" width="60" height="30" as="geometry" />
        </mxCell>
        <mxCell id="nJyOQQGIHR7tUgb3jm-N-27" value="after confirm aproved offer&amp;nbsp;" style="shape=note;whiteSpace=wrap;html=1;backgroundOutline=1;darkOpacity=0.05;sketch=1;hachureGap=4;jiggle=2;curveFitting=1;fontFamily=Architects Daughter;fontSource=https%3A%2F%2Ffonts.googleapis.com%2Fcss%3Ffamily%3DArchitects%2BDaughter;" parent="1" vertex="1">
          <mxGeometry x="-160" y="20" width="260" height="100" as="geometry" />
        </mxCell>
        <mxCell id="nJyOQQGIHR7tUgb3jm-N-4" value="kastle&amp;nbsp;" style="shape=umlLifeline;perimeter=lifelinePerimeter;whiteSpace=wrap;html=1;container=0;dropTarget=0;collapsible=0;recursiveResize=0;outlineConnect=0;portConstraint=eastwest;newEdgeStyle={&quot;edgeStyle&quot;:&quot;elbowEdgeStyle&quot;,&quot;elbow&quot;:&quot;vertical&quot;,&quot;curved&quot;:0,&quot;rounded&quot;:0};" parent="1" vertex="1">
          <mxGeometry x="30" y="150" width="100" height="300" as="geometry" />
        </mxCell>
        <mxCell id="nJyOQQGIHR7tUgb3jm-N-5" value="" style="html=1;points=[];perimeter=orthogonalPerimeter;outlineConnect=0;targetShapes=umlLifeline;portConstraint=eastwest;newEdgeStyle={&quot;edgeStyle&quot;:&quot;elbowEdgeStyle&quot;,&quot;elbow&quot;:&quot;vertical&quot;,&quot;curved&quot;:0,&quot;rounded&quot;:0};" parent="nJyOQQGIHR7tUgb3jm-N-4" vertex="1">
          <mxGeometry x="45" y="70" width="10" height="190" as="geometry" />
        </mxCell>
        <mxCell id="nJyOQQGIHR7tUgb3jm-N-6" value="" style="html=1;verticalAlign=bottom;startArrow=oval;endArrow=block;startSize=8;edgeStyle=elbowEdgeStyle;elbow=vertical;curved=0;rounded=0;" parent="nJyOQQGIHR7tUgb3jm-N-4" target="nJyOQQGIHR7tUgb3jm-N-5" edge="1">
          <mxGeometry relative="1" as="geometry">
            <mxPoint x="-15" y="70" as="sourcePoint" />
          </mxGeometry>
        </mxCell>
        <mxCell id="nJyOQQGIHR7tUgb3jm-N-7" value="" style="html=1;points=[];perimeter=orthogonalPerimeter;outlineConnect=0;targetShapes=umlLifeline;portConstraint=eastwest;newEdgeStyle={&quot;edgeStyle&quot;:&quot;elbowEdgeStyle&quot;,&quot;elbow&quot;:&quot;vertical&quot;,&quot;curved&quot;:0,&quot;rounded&quot;:0};" parent="nJyOQQGIHR7tUgb3jm-N-4" vertex="1">
          <mxGeometry x="50" y="120" width="10" height="80" as="geometry" />
        </mxCell>
        <mxCell id="nJyOQQGIHR7tUgb3jm-N-8" value="internal GW" style="shape=umlLifeline;perimeter=lifelinePerimeter;whiteSpace=wrap;html=1;container=0;dropTarget=0;collapsible=0;recursiveResize=0;outlineConnect=0;portConstraint=eastwest;newEdgeStyle={&quot;edgeStyle&quot;:&quot;elbowEdgeStyle&quot;,&quot;elbow&quot;:&quot;vertical&quot;,&quot;curved&quot;:0,&quot;rounded&quot;:0};" parent="1" vertex="1">
          <mxGeometry x="210" y="150" width="100" height="300" as="geometry" />
        </mxCell>
        <mxCell id="nJyOQQGIHR7tUgb3jm-N-9" value="" style="html=1;points=[];perimeter=orthogonalPerimeter;outlineConnect=0;targetShapes=umlLifeline;portConstraint=eastwest;newEdgeStyle={&quot;edgeStyle&quot;:&quot;elbowEdgeStyle&quot;,&quot;elbow&quot;:&quot;vertical&quot;,&quot;curved&quot;:0,&quot;rounded&quot;:0};" parent="nJyOQQGIHR7tUgb3jm-N-8" vertex="1">
          <mxGeometry x="45" y="80" width="10" height="170" as="geometry" />
        </mxCell>
        <mxCell id="nJyOQQGIHR7tUgb3jm-N-10" value="ivr event" style="html=1;verticalAlign=bottom;endArrow=block;edgeStyle=elbowEdgeStyle;elbow=vertical;curved=0;rounded=0;" parent="1" source="nJyOQQGIHR7tUgb3jm-N-5" target="nJyOQQGIHR7tUgb3jm-N-9" edge="1">
          <mxGeometry relative="1" as="geometry">
            <mxPoint x="185" y="240" as="sourcePoint" />
            <Array as="points">
              <mxPoint x="170" y="230" />
            </Array>
          </mxGeometry>
        </mxCell>
        <mxCell id="nJyOQQGIHR7tUgb3jm-N-11" value="return" style="html=1;verticalAlign=bottom;endArrow=open;dashed=1;endSize=8;edgeStyle=elbowEdgeStyle;elbow=vertical;curved=0;rounded=0;" parent="1" source="nJyOQQGIHR7tUgb3jm-N-9" target="nJyOQQGIHR7tUgb3jm-N-5" edge="1">
          <mxGeometry relative="1" as="geometry">
            <mxPoint x="185" y="315" as="targetPoint" />
            <Array as="points">
              <mxPoint x="180" y="390" />
            </Array>
          </mxGeometry>
        </mxCell>
        <mxCell id="nJyOQQGIHR7tUgb3jm-N-12" value="NE&amp;nbsp;" style="shape=umlLifeline;perimeter=lifelinePerimeter;whiteSpace=wrap;html=1;container=0;dropTarget=0;collapsible=0;recursiveResize=0;outlineConnect=0;portConstraint=eastwest;newEdgeStyle={&quot;edgeStyle&quot;:&quot;elbowEdgeStyle&quot;,&quot;elbow&quot;:&quot;vertical&quot;,&quot;curved&quot;:0,&quot;rounded&quot;:0};" parent="1" vertex="1">
          <mxGeometry x="360" y="150" width="100" height="300" as="geometry" />
        </mxCell>
        <mxCell id="nJyOQQGIHR7tUgb3jm-N-13" value="" style="html=1;points=[];perimeter=orthogonalPerimeter;outlineConnect=0;targetShapes=umlLifeline;portConstraint=eastwest;newEdgeStyle={&quot;edgeStyle&quot;:&quot;elbowEdgeStyle&quot;,&quot;elbow&quot;:&quot;vertical&quot;,&quot;curved&quot;:0,&quot;rounded&quot;:0};" parent="nJyOQQGIHR7tUgb3jm-N-12" vertex="1">
          <mxGeometry x="45" y="60" width="10" height="190" as="geometry" />
        </mxCell>
        <mxCell id="nJyOQQGIHR7tUgb3jm-N-17" value="/callMe" style="html=1;verticalAlign=bottom;endArrow=block;edgeStyle=elbowEdgeStyle;elbow=vertical;curved=0;rounded=0;" parent="1" source="nJyOQQGIHR7tUgb3jm-N-7" target="nJyOQQGIHR7tUgb3jm-N-9" edge="1">
          <mxGeometry relative="1" as="geometry">
            <mxPoint x="250" y="270" as="sourcePoint" />
            <Array as="points">
              <mxPoint x="180" y="270" />
            </Array>
            <mxPoint x="280" y="290" as="targetPoint" />
          </mxGeometry>
        </mxCell>
        <mxCell id="nJyOQQGIHR7tUgb3jm-N-29" style="edgeStyle=elbowEdgeStyle;rounded=0;sketch=1;hachureGap=4;jiggle=2;curveFitting=1;orthogonalLoop=1;jettySize=auto;html=1;elbow=vertical;curved=0;fontFamily=Architects Daughter;fontSource=https%3A%2F%2Ffonts.googleapis.com%2Fcss%3Ffamily%3DArchitects%2BDaughter;" parent="1" edge="1">
          <mxGeometry relative="1" as="geometry">
            <mxPoint x="265" y="260" as="sourcePoint" />
            <mxPoint x="409.5" y="260" as="targetPoint" />
          </mxGeometry>
        </mxCell>
      </root>
    </mxGraphModel>
  </diagram>
</mxfile>
